{"buffers":[{"uri":"test.bin","byteLength":23352}],"asset":{"version":"2.0","generator":"gltfpack 0.16"},"bufferViews":[{"buffer":0,"byteOffset":0,"byteLength":9408,"byteStride":12,"target":34962},{"buffer":0,"byteOffset":9408,"byteLength":9408,"byteStride":12,"target":34962},{"buffer":0,"byteOffset":18816,"byteLength":4536,"target":34963}],"accessors":[{"bufferView":0,"byteOffset":0,"componentType":5126,"count":784,"type":"VEC3","min":[-77.4700012,0,-1.26822996],"max":[77.4700012,2450,1.26822996]},{"bufferView":1,"byteOffset":0,"componentType":5126,"count":784,"type":"VEC3"},{"bufferView":2,"byteOffset":0,"componentType":5123,"count":2268,"type":"SCALAR"}],"materials":[{"pbrMetallicRoughness":{"baseColorFactor":[0.627451003,0.627451003,0.627451003,1],"metallicFactor":0},"doubleSided":true}],"meshes":[{"primitives":[{"attributes":{"POSITION":0,"NORMAL":1},"mode":4,"indices":2,"material":0}]}],"nodes":[{"mesh":0},{"children":[0]}],"scenes":[{"nodes":[1]}]}